<?xml version="1.0" standalone="no"?>
<!DOCTYPE svg PUBLIC "-//W3C//DTD SVG 20010904//EN"
 "http://www.w3.org/TR/2001/REC-SVG-20010904/DTD/svg10.dtd">
<svg version="1.0" xmlns="http://www.w3.org/2000/svg"
 width="64.000000pt" height="64.000000pt" viewBox="0 0 64.000000 64.000000"
 preserveAspectRatio="xMidYMid meet">

<g transform="translate(0.000000,64.000000) scale(0.100000,-0.100000)"
fill="#000000" stroke="none">
<path d="M330 618 c0 -19 10 -27 50 -41 95 -34 163 -102 197 -197 14 -40 20
-46 39 -42 22 4 22 5 9 50 -35 116 -143 215 -267 246 -24 6 -28 3 -28 -16z"/>
<path d="M47 530 c-48 -48 -50 -51 -44 -94 8 -54 52 -148 102 -217 80 -108
241 -210 337 -213 47 -1 52 2 94 46 24 26 44 52 44 58 0 19 -92 110 -117 116
-19 5 -33 -1 -62 -30 l-37 -36 -47 31 c-57 37 -135 123 -143 156 -5 19 1 32
26 58 25 26 31 39 26 58 -6 26 -97 117 -117 117 -7 0 -34 -22 -62 -50z"/>
<path d="M320 486 c0 -17 7 -26 25 -30 34 -9 90 -60 105 -96 9 -22 19 -30 37
-30 21 0 23 3 18 23 -19 61 -69 117 -127 142 -50 20 -58 19 -58 -9z"/>
</g>
</svg>
