<?xml version="1.0" standalone="no"?>
<!DOCTYPE svg PUBLIC "-//W3C//DTD SVG 20010904//EN"
 "http://www.w3.org/TR/2001/REC-SVG-20010904/DTD/svg10.dtd">
<svg version="1.0" xmlns="http://www.w3.org/2000/svg"
 width="64.000000pt" height="64.000000pt" viewBox="0 0 64.000000 64.000000"
 preserveAspectRatio="xMidYMid meet">

<g transform="translate(0.000000,64.000000) scale(0.100000,-0.100000)"
fill="#000000" stroke="none">
<path d="M257 630 c-184 -46 -287 -238 -223 -416 l19 -51 -26 -78 c-15 -43
-26 -80 -24 -81 1 -2 40 8 86 22 81 25 85 26 140 10 118 -33 227 -8 312 71 62
58 92 128 93 213 0 85 -15 134 -62 195 -67 89 -210 141 -315 115z m181 -83
c85 -41 134 -121 134 -218 0 -105 -64 -195 -166 -234 -54 -21 -135 -16 -186
10 -28 15 -39 15 -73 5 -21 -6 -41 -10 -43 -8 -2 2 2 20 8 40 9 31 8 42 -11
80 -49 103 -14 237 81 305 76 55 169 62 256 20z"/>
<path d="M186 448 c-33 -47 -11 -114 61 -186 48 -48 118 -82 170 -82 27 0 73
41 73 64 0 9 -18 25 -41 37 l-41 20 -22 -20 c-21 -20 -22 -20 -51 -2 -50 31
-81 69 -67 83 16 16 15 43 -3 78 -19 37 -57 40 -79 8z"/>
</g>
</svg>
