<?xml version="1.0" standalone="no"?>
<!DOCTYPE svg PUBLIC "-//W3C//DTD SVG 20010904//EN"
 "http://www.w3.org/TR/2001/REC-SVG-20010904/DTD/svg10.dtd">
<svg version="1.0" xmlns="http://www.w3.org/2000/svg"
 width="2499.000000pt" height="658.000000pt" viewBox="0 0 2499.000000 658.000000"
 preserveAspectRatio="xMidYMid meet">

<g transform="translate(0.000000,658.000000) scale(0.100000,-0.100000)"
fill="#000000" stroke="none">
<path d="M13595 6574 c-11 -2 -45 -9 -75 -15 -30 -6 -97 -31 -149 -56 -166
-79 -301 -241 -355 -423 -75 -252 24 -562 232 -725 216 -170 510 -196 757 -67
84 44 213 169 263 254 84 142 114 339 77 502 -53 241 -251 447 -490 511 -60
16 -222 28 -260 19z m119 -194 c14 -5 32 -23 41 -41 16 -29 15 -39 -15 -191
-43 -221 -40 -223 132 -69 113 101 144 117 191 97 55 -23 71 -89 34 -140 -8
-11 -75 -39 -168 -71 -211 -71 -211 -75 -4 -145 166 -57 195 -76 195 -131 0
-15 -12 -41 -26 -58 -20 -25 -34 -31 -64 -31 -33 0 -50 11 -150 98 -141 122
-142 123 -159 113 -11 -7 -8 -36 18 -168 23 -115 29 -166 23 -184 -26 -66
-105 -85 -148 -35 -31 35 -31 73 2 227 26 123 27 160 8 166 -6 2 -42 -24 -80
-58 -154 -138 -184 -159 -217 -159 -99 0 -128 124 -39 169 21 10 94 37 164 60
121 40 151 59 125 79 -7 5 -76 30 -154 57 -157 53 -187 73 -187 130 0 60 63
106 116 86 13 -5 75 -54 138 -110 63 -55 123 -101 133 -101 23 0 22 19 -8 165
-34 165 -33 196 6 229 33 28 53 32 93 16z"/>
<path d="M23305 6574 c-11 -2 -45 -9 -75 -15 -30 -6 -97 -31 -149 -56 -79 -38
-109 -59 -177 -127 -68 -68 -90 -99 -127 -177 -59 -121 -82 -231 -74 -350 22
-304 234 -556 525 -625 87 -21 240 -21 322 0 189 47 368 189 448 356 53 109
72 191 72 311 0 314 -205 584 -505 664 -60 16 -222 28 -260 19z m146 -210 c31
-28 31 -66 -1 -224 -16 -83 -28 -156 -25 -161 14 -21 41 -4 143 87 127 115
157 131 206 110 39 -16 56 -42 56 -84 0 -54 -26 -71 -191 -127 -211 -71 -211
-76 -5 -145 167 -55 196 -75 196 -131 0 -15 -12 -41 -26 -58 -20 -24 -34 -31
-63 -31 -40 0 -46 4 -208 147 -53 47 -88 71 -98 67 -8 -3 -15 -9 -15 -12 0 -3
14 -77 31 -164 36 -182 32 -209 -28 -234 -41 -18 -77 -9 -103 23 -26 33 -25
64 6 217 25 127 28 167 9 173 -6 2 -46 -29 -90 -68 -139 -123 -175 -149 -207
-149 -42 0 -68 17 -84 56 -13 31 -13 39 2 69 17 37 58 56 251 120 46 14 86 31
89 37 12 19 -21 35 -163 83 -90 30 -150 56 -163 70 -51 54 -10 149 64 149 35
0 86 -37 226 -164 61 -55 90 -64 90 -26 0 13 -11 78 -25 146 -34 167 -33 191
7 225 26 22 39 26 66 21 19 -3 43 -13 53 -22z"/>
<path d="M220 5834 c-8 -4 -46 -25 -84 -46 -60 -36 -71 -47 -94 -97 -21 -46
-27 -74 -30 -156 -3 -92 -2 -103 20 -134 12 -19 41 -44 63 -55 38 -20 57 -21
395 -24 l355 -2 3 -1115 2 -1114 -22 -12 c-16 -9 -74 -10 -227 -3 -315 14
-327 13 -388 -20 -145 -80 -220 -223 -179 -343 22 -63 64 -123 103 -146 54
-31 124 -32 298 -2 l159 27 530 -6 c292 -4 592 -9 666 -12 167 -7 227 4 280
53 52 46 75 109 75 203 0 102 -31 157 -111 196 -55 27 -59 27 -391 40 -217 9
-340 18 -349 25 -12 10 -14 196 -14 1135 l0 1124 38 0 c20 0 133 -9 251 -20
307 -29 406 -30 456 -3 51 27 78 57 99 112 48 125 12 194 -159 306 -120 79
-50 71 -752 79 -345 3 -707 8 -803 11 -96 3 -182 2 -190 -1z"/>
<path d="M3952 5716 c-46 -16 -78 -50 -87 -88 -3 -18 -9 -205 -13 -415 -5
-273 -10 -385 -19 -394 -9 -9 -52 -8 -187 6 -113 11 -230 16 -333 14 -145 -4
-162 -6 -208 -29 -66 -33 -77 -62 -59 -150 17 -80 55 -137 114 -170 l45 -25
298 0 c271 0 300 -2 311 -17 10 -13 15 -151 20 -574 5 -409 11 -579 21 -638
40 -228 168 -459 297 -536 251 -150 298 -166 468 -157 170 9 360 61 518 141
50 26 149 123 199 196 43 63 97 174 118 242 17 52 18 78 9 295 -11 268 -12
274 -90 319 -77 45 -190 27 -237 -37 -24 -33 -33 -75 -52 -234 -26 -222 -59
-295 -179 -398 -92 -78 -157 -114 -232 -128 -141 -26 -326 60 -399 186 -48 81
-53 140 -65 755 -12 655 -20 600 79 600 31 0 200 5 376 10 291 10 324 13 363
31 56 28 65 48 60 134 -6 84 -28 130 -76 158 -37 22 -139 24 -322 7 -160 -14
-465 -13 -477 3 -6 7 -7 65 -2 152 30 552 32 609 16 647 -34 82 -176 130 -275
94z"/>
<path d="M9899 5677 c-130 -44 -172 -99 -173 -223 -1 -83 17 -118 70 -140 61
-25 221 -42 468 -49 132 -3 244 -9 249 -12 10 -6 0 -2190 -10 -2205 -2 -5
-147 -8 -322 -8 -345 0 -381 -4 -447 -55 -41 -31 -70 -84 -79 -145 -15 -100
70 -232 167 -259 69 -19 2057 -3 2081 17 9 8 26 39 38 70 43 112 19 313 -44
357 -17 12 -65 15 -257 16 -129 1 -345 5 -480 8 l-245 6 -5 1195 -5 1195 -24
52 c-28 62 -103 136 -167 164 -38 17 -80 22 -252 29 -361 16 -487 13 -563 -13z"/>
<path d="M7014 4840 c-141 -18 -302 -92 -401 -184 -108 -100 -165 -222 -189
-402 -15 -115 53 -226 174 -282 48 -23 71 -27 142 -27 73 0 92 4 137 28 63 32
119 80 138 116 7 15 21 56 30 91 9 36 35 104 57 153 45 97 60 110 171 152 155
58 274 53 415 -16 131 -64 186 -131 217 -261 19 -80 20 -208 1 -233 -10 -14
-81 -32 -317 -81 -337 -70 -515 -104 -662 -128 -106 -17 -254 -73 -339 -127
-105 -68 -186 -186 -224 -329 -22 -84 -22 -267 0 -370 21 -94 72 -205 121
-259 47 -52 147 -101 280 -138 95 -27 111 -28 300 -27 247 1 513 36 601 79 59
29 117 89 171 177 20 32 41 58 47 58 7 0 28 -21 48 -48 54 -70 177 -186 223
-210 101 -51 266 -44 422 18 145 58 210 123 244 247 23 83 24 125 3 169 -27
58 -68 79 -149 79 -94 0 -154 -33 -193 -107 -43 -82 -66 -101 -113 -95 -52 7
-107 50 -129 101 -33 76 -59 581 -41 790 6 71 14 223 18 337 7 234 6 242 -73
406 -56 117 -147 218 -236 263 -50 24 -74 30 -127 30 -36 0 -129 7 -206 15
-177 19 -468 27 -561 15z m851 -1232 c-2 -18 -6 -78 -9 -133 -5 -112 -27 -231
-58 -312 -48 -130 -197 -233 -393 -275 -134 -28 -353 -31 -438 -5 -108 33
-187 134 -195 250 -9 120 40 199 173 282 149 93 247 121 670 189 270 44 255
44 250 4z"/>
<path d="M16746 4839 c-144 -20 -314 -101 -409 -195 -80 -79 -142 -199 -161
-309 -22 -125 -20 -163 10 -223 62 -124 222 -196 363 -162 67 16 164 79 194
127 14 21 33 72 43 113 11 41 37 111 59 155 35 71 46 83 90 107 208 112 427
91 613 -59 53 -43 67 -70 93 -180 22 -93 24 -222 3 -243 -14 -14 -658 -150
-896 -189 -176 -30 -229 -46 -389 -119 -112 -52 -212 -186 -255 -342 -25 -90
-25 -298 0 -395 45 -171 113 -266 233 -322 225 -104 451 -118 886 -52 71 10
148 27 172 38 55 24 114 84 171 172 25 38 51 69 58 69 7 0 25 -18 40 -40 40
-60 180 -193 229 -218 74 -37 137 -44 248 -27 218 32 372 132 409 265 13 47
13 146 -1 173 -33 63 -91 99 -159 99 -85 0 -147 -47 -199 -149 -23 -46 -46
-58 -97 -48 -44 8 -109 66 -123 108 -29 86 -50 624 -32 787 18 162 25 485 12
554 -6 32 -36 110 -67 174 -46 95 -68 128 -123 183 -96 96 -130 110 -281 120
-69 5 -165 13 -215 19 -132 15 -440 20 -519 9z m854 -1271 c0 -171 -37 -357
-88 -451 -53 -97 -185 -185 -332 -221 -36 -8 -118 -21 -182 -28 -209 -21 -359
14 -424 99 -106 140 -88 309 46 407 82 60 204 121 290 145 96 27 593 115 673
120 15 1 17 -9 17 -71z"/>
<path d="M13092 4810 c-46 -28 -76 -97 -70 -162 7 -69 33 -99 104 -121 51 -17
86 -19 264 -16 113 2 248 3 300 3 l95 1 7 -85 c8 -111 10 -1289 1 -1358 l-6
-53 -381 2 c-210 1 -398 -1 -419 -6 -100 -20 -150 -143 -114 -283 17 -63 59
-125 104 -153 52 -32 208 -38 1078 -38 738 -1 959 6 1052 30 59 16 112 65 123
114 30 130 -15 251 -111 301 -45 23 -193 33 -574 38 -198 3 -363 6 -367 6 -15
0 -19 93 -28 820 -5 443 -14 792 -20 829 -12 71 -41 135 -65 145 -9 3 -224 6
-478 6 -446 0 -463 -1 -495 -20z"/>
<path d="M22829 4807 c-44 -29 -69 -80 -69 -140 0 -70 23 -112 73 -134 37 -16
81 -19 367 -23 l325 -5 6 -175 c9 -235 9 -1192 1 -1255 l-7 -50 -390 0 c-385
-1 -391 -1 -437 -24 -73 -35 -93 -75 -93 -186 1 -77 5 -97 27 -141 15 -28 42
-65 62 -81 29 -27 46 -32 113 -40 125 -13 1874 -10 1961 4 95 15 161 48 187
93 27 48 28 179 1 230 -23 45 -64 88 -98 106 -43 22 -196 32 -582 38 -198 3
-364 10 -368 14 -5 5 -13 348 -19 763 -5 415 -14 789 -19 831 -11 90 -44 168
-80 185 -19 10 -138 13 -476 13 l-451 0 -34 -23z"/>
<path d="M20664 4810 c-76 -11 -145 -36 -281 -100 -157 -75 -256 -144 -347
-242 -40 -43 -75 -78 -78 -78 -3 0 -8 60 -10 133 -5 144 -17 184 -75 239 -46
43 -72 48 -277 48 -232 0 -270 -9 -347 -77 -69 -63 -99 -127 -99 -215 0 -61 3
-71 29 -100 l29 -33 190 -1 c142 0 194 -4 206 -13 14 -12 16 -85 16 -680 l0
-667 -154 -26 c-101 -16 -171 -33 -202 -49 l-49 -24 -3 -95 c-6 -180 13 -222
121 -261 58 -21 81 -23 375 -27 325 -4 483 6 550 33 82 35 141 121 142 207 0
59 -10 86 -50 132 -40 45 -99 63 -240 74 l-105 7 -3 424 c-1 264 2 437 8 461
16 58 101 181 189 273 166 172 403 307 540 307 67 0 170 -27 212 -55 60 -39
78 -91 99 -282 10 -92 19 -211 20 -263 4 -179 -13 -825 -21 -842 -6 -12 -28
-18 -76 -23 -161 -15 -222 -53 -261 -158 -28 -73 -28 -144 -1 -207 17 -40 30
-53 67 -72 46 -22 49 -22 487 -19 242 1 472 7 510 12 124 17 173 59 195 166
21 98 2 150 -72 203 -70 51 -154 71 -323 77 -82 3 -158 10 -167 15 -17 8 -18
33 -18 301 -1 489 -23 915 -56 1056 -38 166 -141 295 -294 369 -125 60 -267
88 -376 72z"/>
<path d="M15259 1521 c-40 -40 -42 -115 -3 -160 72 -86 206 -21 191 93 -12 91
-124 130 -188 67z"/>
<path d="M9810 1478 c-24 -13 -25 -18 -30 -133 -3 -66 -9 -127 -13 -136 -10
-21 -50 -39 -86 -39 -34 0 -49 -15 -57 -58 -10 -51 16 -82 69 -82 23 0 53 -7
65 -16 22 -15 22 -17 22 -288 0 -309 7 -350 66 -416 61 -68 111 -85 244 -85
146 0 202 18 268 84 60 61 106 143 98 177 -12 47 -108 83 -136 52 -6 -7 -25
-38 -43 -68 -43 -73 -93 -101 -180 -102 -79 0 -123 21 -143 67 -19 46 -21 564
-2 583 8 8 63 12 183 12 192 0 205 4 205 69 0 71 -1 71 -198 71 -125 0 -182 4
-190 12 -8 8 -12 55 -12 144 0 103 -3 134 -15 144 -22 18 -87 22 -115 8z"/>
<path d="M6415 1191 c-16 -5 -55 -18 -85 -30 -44 -17 -57 -19 -65 -8 -15 19
-256 17 -278 -2 -19 -15 -23 -86 -7 -111 5 -8 31 -17 62 -20 l53 -5 0 -430 0
-430 -53 -5 c-31 -3 -57 -12 -62 -20 -15 -23 -12 -96 4 -109 20 -17 502 -17
522 0 8 6 14 29 14 54 0 65 -17 75 -133 73 -125 -2 -127 0 -127 108 0 46 3 84
6 84 3 0 17 -9 32 -20 14 -11 56 -30 94 -41 155 -47 324 -7 420 100 84 93 121
203 120 356 0 200 -84 355 -229 427 -59 29 -77 33 -162 35 -53 1 -109 -2 -126
-6z m215 -164 c86 -44 140 -158 140 -297 0 -137 -50 -246 -136 -296 -41 -24
-60 -28 -119 -28 -59 0 -78 4 -118 27 -100 59 -142 157 -135 321 3 84 9 110
32 158 63 132 207 181 336 115z"/>
<path d="M7540 1184 c-74 -16 -174 -62 -213 -98 -31 -29 -36 -79 -11 -114 22
-31 67 -28 125 8 74 48 153 71 244 73 71 2 85 -1 127 -25 51 -31 86 -79 95
-131 l5 -35 -153 5 c-124 5 -167 2 -219 -11 -179 -46 -270 -154 -270 -320 0
-131 54 -229 153 -280 109 -56 333 -44 439 23 l44 28 17 -28 16 -29 130 0
c145 0 151 3 151 70 0 56 -14 70 -74 70 -31 0 -58 5 -64 13 -7 8 -12 114 -14
293 l-3 280 -30 59 c-57 111 -169 166 -339 164 -50 0 -120 -7 -156 -15z m343
-470 l27 -6 0 -98 0 -97 -46 -43 c-83 -77 -214 -118 -310 -98 -52 11 -110 70
-120 122 -21 114 56 201 196 225 52 9 193 6 253 -5z"/>
<path d="M8731 1184 c-105 -28 -170 -88 -197 -181 -31 -106 -2 -209 77 -277
61 -51 143 -75 297 -86 183 -12 234 -41 234 -137 0 -81 -45 -118 -160 -132
-88 -11 -187 1 -239 28 -50 25 -83 80 -83 139 0 50 -14 62 -75 62 -82 0 -88
-9 -76 -114 7 -60 7 -113 0 -160 -12 -88 -3 -101 77 -101 52 0 66 7 77 40 2 5
39 -2 83 -15 64 -20 100 -25 194 -25 184 0 285 45 339 150 22 42 26 63 25 131
0 68 -5 90 -28 138 -49 100 -122 131 -334 145 -161 11 -215 32 -246 95 -17 36
-18 43 -5 79 18 52 50 74 124 88 111 20 233 -11 267 -68 9 -16 19 -50 23 -76
9 -57 29 -71 92 -64 70 8 75 18 61 116 -8 62 -8 97 0 144 15 77 7 87 -77 94
-57 5 -63 4 -68 -16 -7 -26 -21 -26 -101 -1 -76 24 -201 26 -281 4z"/>
<path d="M11033 1185 c-125 -28 -243 -104 -243 -156 0 -23 18 -61 34 -71 23
-15 62 -7 106 22 85 57 242 91 322 70 79 -21 148 -97 148 -164 l0 -24 -142 5
c-205 8 -312 -18 -401 -96 -135 -119 -123 -398 23 -495 65 -43 141 -59 249
-53 107 6 181 25 234 61 l36 25 13 -27 13 -27 129 -3 c86 -2 133 1 142 9 17
14 19 100 2 117 -7 7 -35 12 -63 12 -28 0 -56 5 -63 12 -9 9 -12 84 -12 278 0
301 -6 338 -65 408 -21 24 -62 54 -102 74 -61 30 -74 32 -182 35 -74 2 -139
-3 -178 -12z m340 -471 l27 -6 0 -103 0 -104 -42 -34 c-114 -92 -266 -126
-355 -79 -32 17 -62 59 -73 103 -29 108 52 204 192 228 50 9 192 6 251 -5z"/>
<path d="M14130 1177 c-36 -14 -73 -28 -82 -32 -12 -4 -20 -2 -23 7 -5 12 -31
14 -138 13 -73 -1 -135 -3 -138 -4 -10 -2 -29 -51 -29 -74 0 -42 27 -67 73
-67 23 0 48 -4 55 -8 10 -7 12 -100 10 -433 l-3 -424 -52 -3 c-57 -3 -83 -25
-83 -69 0 -29 20 -73 34 -73 6 -1 121 -1 256 -1 220 0 246 2 257 18 18 23 16
74 -3 101 -14 20 -22 22 -107 20 -139 -2 -137 -4 -137 102 l0 88 71 -36 c70
-36 74 -37 188 -37 105 0 121 3 174 27 108 51 198 173 226 306 16 75 14 208
-4 277 -35 136 -114 239 -222 291 -48 23 -74 28 -158 31 -87 3 -108 1 -165
-20z m250 -147 c51 -26 106 -92 127 -154 25 -72 24 -223 -1 -296 -28 -81 -104
-154 -179 -170 -197 -44 -347 143 -309 385 22 142 88 228 197 256 43 11 122 1
165 -21z"/>
<path d="M18464 1186 c-77 -18 -166 -59 -210 -98 -40 -36 -46 -82 -14 -116 29
-31 63 -27 128 12 113 69 277 92 357 50 47 -24 105 -104 105 -144 l0 -28 -147
5 c-169 6 -232 -3 -322 -48 -67 -34 -114 -81 -145 -148 -17 -37 -21 -65 -21
-141 0 -84 3 -102 28 -152 36 -72 84 -113 166 -138 118 -37 302 -19 393 39
l44 28 17 -28 16 -29 130 0 c145 0 151 3 151 70 0 56 -14 70 -73 70 -29 0 -58
5 -65 12 -9 9 -12 84 -12 278 0 301 -6 338 -65 408 -21 24 -62 54 -102 74 -61
30 -74 32 -182 35 -73 2 -139 -3 -177 -11z m339 -472 l27 -6 0 -100 0 -101
-36 -34 c-97 -91 -271 -133 -359 -85 -54 28 -92 107 -82 168 14 82 89 144 198
163 51 9 192 6 252 -5z"/>
<path d="M15094 1145 c-19 -27 -18 -68 4 -95 15 -19 29 -22 92 -24 41 -1 81
-5 88 -9 9 -6 12 -78 12 -302 l0 -295 -25 -16 c-22 -14 -42 -16 -122 -11 -82
6 -100 4 -115 -10 -23 -21 -25 -95 -2 -114 13 -10 84 -14 327 -14 289 -2 312
0 329 17 11 11 18 33 18 57 0 60 -21 70 -130 63 -64 -3 -94 -1 -105 8 -13 11
-15 64 -15 389 l0 376 -171 0 c-160 0 -172 -1 -185 -20z"/>
<path d="M16009 1166 c-2 -2 -3 -80 -3 -172 2 -188 4 -194 74 -194 64 0 77 18
82 111 5 115 11 119 178 119 97 0 130 -3 139 -14 9 -11 -35 -72 -227 -308
-131 -162 -246 -305 -255 -318 -25 -35 -22 -95 5 -120 21 -20 31 -20 378 -18
l355 3 8 164 c9 193 6 201 -73 201 -70 0 -79 -12 -82 -104 -3 -73 -5 -80 -31
-100 -25 -18 -45 -21 -157 -24 -124 -4 -170 4 -170 29 0 5 117 154 260 330
259 320 277 347 252 385 -20 31 -54 34 -390 34 -186 0 -341 -2 -343 -4z"/>
<path d="M17108 1163 c-2 -5 -2 -83 0 -174 3 -166 3 -166 28 -178 35 -15 76
-14 102 5 18 12 22 25 22 67 0 68 16 124 40 137 23 12 260 13 279 1 8 -5 11
-15 8 -22 -3 -8 -110 -142 -237 -299 -128 -157 -241 -298 -251 -315 -26 -41
-24 -81 6 -110 l24 -25 349 0 c257 0 351 3 360 12 8 8 12 61 12 175 0 184 1
183 -84 183 -64 0 -76 -16 -76 -104 0 -43 -5 -79 -13 -90 -18 -25 -77 -35
-194 -36 -97 0 -153 10 -153 28 0 4 115 150 256 323 140 172 260 324 266 337
15 30 -3 69 -38 82 -30 12 -701 14 -706 3z"/>
</g>
</svg>
