<svg width="32" height="32" viewBox="0 0 32 32" fill="none" xmlns="http://www.w3.org/2000/svg">
<rect width="32" height="32" rx="16" fill="#ECECEE"/>
<path d="M12.5349 11.5452C12.2615 11.2719 11.8183 11.2719 11.5449 11.5452C11.2715 11.8186 11.2715 12.2618 11.5449 12.5352L12.5349 11.5452ZM19.4645 20.4548C19.7379 20.7281 20.1811 20.7281 20.4544 20.4548C20.7278 20.1814 20.7278 19.7382 20.4544 19.4648L19.4645 20.4548ZM11.5449 19.4648C11.2715 19.7382 11.2715 20.1814 11.5449 20.4548C11.8183 20.7281 12.2615 20.7281 12.5349 20.4548L11.5449 19.4648ZM20.4544 12.5352C20.7278 12.2618 20.7278 11.8186 20.4544 11.5452C20.1811 11.2719 19.7379 11.2719 19.4645 11.5452L20.4544 12.5352ZM11.5449 12.5352L19.4645 20.4548L20.4544 19.4648L12.5349 11.5452L11.5449 12.5352ZM12.5349 20.4548L20.4544 12.5352L19.4645 11.5452L11.5449 19.4648L12.5349 20.4548Z" fill="#3F394F"/>
</svg>
